<svg width="500" height="500" viewBox="0 0 500 500" fill="none" xmlns="http://www.w3.org/2000/svg">
<path d="M247.703 155.917C251.849 155.917 254.953 156.958 258.063 158C261.167 159.047 264.276 161.13 267.385 164.255C269.453 166.339 271.526 169.469 272.563 172.594C273.599 175.724 274.635 179.891 274.635 183.021C274.635 185.104 272.563 186.146 271.526 186.146C269.453 186.146 268.417 185.104 268.417 183.021C268.417 179.891 267.385 177.807 266.349 174.682C265.313 172.594 264.276 170.51 262.203 168.427C260.135 166.339 258.063 164.255 255.99 163.214C252.885 162.172 250.813 162.172 247.703 162.172C246.667 162.172 244.599 161.13 244.599 159.047C244.599 156.958 246.667 155.917 247.703 155.917ZM287.063 195.526C291.203 197.615 294.313 199.698 298.453 202.823C305.703 211.161 310.885 221.589 310.885 233.052V247.646H322.276V257.026H290.167V247.646H301.563V233.052C301.563 223.672 297.417 215.333 292.24 210.12C289.135 206.995 286.026 204.911 281.885 202.823C277.74 209.078 271.526 214.292 264.276 217.417L252.885 228.885L264.276 271.62L249.776 286.214L235.276 271.62L246.667 228.885L235.276 217.417L249.776 201.781L257.026 210.12C270.49 205.953 280.849 194.484 280.849 179.891C280.849 162.172 267.385 148.62 249.776 148.62C233.203 148.62 218.703 162.172 218.703 179.891C218.703 192.401 225.953 202.823 237.349 208.036L230.099 214.292C224.917 212.208 220.776 208.036 217.667 202.823C213.526 204.911 210.417 206.995 207.313 210.12C202.135 215.333 197.99 223.672 197.99 233.052V247.646H210.417V257.026H177.276V247.646H189.703V233.052C189.703 221.589 193.849 211.161 201.099 202.823C205.24 199.698 208.349 197.615 213.526 195.526C211.453 190.318 210.417 185.104 210.417 179.891C210.417 156.958 228.026 139.24 249.776 139.24C271.526 139.24 290.167 156.958 290.167 179.891C290.167 185.104 289.135 190.318 287.063 195.526Z" fill="#03989E"/>
<path d="M207.06 291.45H222.039C222.623 291.45 223.045 291.523 223.31 291.658C223.586 291.799 223.769 292.012 223.852 292.304C223.946 292.585 223.998 292.96 223.998 293.429C223.998 293.887 223.946 294.257 223.852 294.533C223.769 294.814 223.612 295.007 223.394 295.116C223.071 295.283 222.612 295.366 222.019 295.366H216.873V308.929C216.873 309.335 216.857 309.637 216.831 309.846C216.8 310.044 216.716 310.273 216.581 310.533C216.456 310.783 216.216 310.965 215.873 311.075C215.524 311.189 215.071 311.241 214.519 311.241C213.961 311.241 213.519 311.189 213.185 311.075C212.852 310.965 212.612 310.783 212.477 310.533C212.352 310.273 212.274 310.033 212.248 309.825C212.216 309.616 212.206 309.304 212.206 308.887V295.366H207.039C206.456 295.366 206.024 295.299 205.748 295.158C205.482 295.023 205.3 294.814 205.206 294.533C205.123 294.241 205.081 293.866 205.081 293.408C205.081 292.939 205.123 292.564 205.206 292.283C205.3 292.007 205.461 291.814 205.685 291.7C206.003 291.533 206.461 291.45 207.06 291.45Z" fill="#272727"/>
<path d="M230.183 291.45L235.162 291.471C237.772 291.471 240.063 292.419 242.037 294.304C244.022 296.179 245.016 298.491 245.016 301.241C245.016 303.981 244.042 306.325 242.1 308.283C240.167 310.241 237.829 311.221 235.079 311.221H230.162C229.063 311.221 228.376 310.991 228.1 310.533C227.891 310.158 227.787 309.59 227.787 308.825V293.825C227.787 293.398 227.798 293.085 227.829 292.887C227.855 292.695 227.938 292.46 228.079 292.179C228.329 291.695 229.027 291.45 230.183 291.45ZM235.162 306.45C236.454 306.45 237.62 305.971 238.662 305.012C239.714 304.044 240.245 302.835 240.245 301.387C240.245 299.929 239.73 298.715 238.704 297.741C237.688 296.757 236.501 296.262 235.141 296.262H232.558V306.45H235.162Z" fill="#272727"/>
<path d="M261.286 292.221C261.422 291.945 261.661 291.752 261.995 291.637C262.339 291.528 262.776 291.471 263.307 291.471C263.833 291.471 264.25 291.523 264.557 291.616C264.859 291.7 265.089 291.814 265.245 291.95C265.411 292.075 265.536 292.252 265.62 292.471C265.714 292.778 265.766 293.252 265.766 293.887V308.846C265.766 309.262 265.75 309.575 265.724 309.783C265.693 309.981 265.609 310.215 265.474 310.491C265.208 310.981 264.505 311.221 263.37 311.221C262.104 311.221 261.359 310.887 261.141 310.221C261.042 309.918 260.995 309.45 260.995 308.825V303.346H253.849V308.846C253.849 309.262 253.833 309.575 253.807 309.783C253.776 309.981 253.693 310.215 253.557 310.491C253.292 310.981 252.589 311.221 251.453 311.221C250.187 311.221 249.453 310.887 249.245 310.221C249.13 309.918 249.078 309.45 249.078 308.825V293.846C249.078 293.445 249.089 293.137 249.12 292.929C249.146 292.721 249.229 292.481 249.37 292.2C249.62 291.715 250.318 291.471 251.474 291.471C252.734 291.471 253.479 291.804 253.703 292.471C253.797 292.778 253.849 293.252 253.849 293.887V299.387H260.995V293.846C260.995 293.445 261.005 293.137 261.036 292.929C261.062 292.721 261.146 292.486 261.286 292.221Z" fill="#272727"/>
<path d="M284.797 295.471C285.266 296.429 285.505 297.491 285.505 298.658C285.505 299.825 285.266 300.882 284.797 301.825C284.338 302.773 283.739 303.523 283.005 304.075C281.516 305.231 279.974 305.804 278.38 305.804H275.005V308.846C275.005 309.262 274.989 309.575 274.963 309.783C274.932 309.981 274.849 310.215 274.713 310.491C274.448 310.981 273.745 311.221 272.609 311.221C271.344 311.221 270.609 310.887 270.401 310.221C270.286 309.918 270.234 309.45 270.234 308.825V293.846C270.234 293.445 270.245 293.137 270.276 292.929C270.302 292.721 270.385 292.481 270.526 292.2C270.776 291.715 271.474 291.471 272.63 291.471H278.401C279.984 291.471 281.516 292.049 283.005 293.2C283.739 293.757 284.338 294.512 284.797 295.471ZM278.401 301.033C278.943 301.033 279.469 300.84 279.984 300.45C280.51 300.049 280.776 299.45 280.776 298.658C280.776 297.866 280.51 297.273 279.984 296.866C279.469 296.465 278.932 296.262 278.38 296.262H275.005V301.033H278.401Z" fill="#272727"/>
<path d="M205.454 331.99C205.256 331.99 205.089 331.928 204.954 331.803C204.829 331.667 204.766 331.49 204.766 331.282V321.823C204.766 321.615 204.829 321.443 204.954 321.303C205.089 321.167 205.256 321.094 205.454 321.094H211.725C211.902 321.094 212.058 321.167 212.183 321.303C212.319 321.428 212.391 321.584 212.391 321.761C212.391 321.959 212.319 322.115 212.183 322.24C212.058 322.365 211.902 322.428 211.725 322.428H206.183V325.865H211.162C211.339 325.865 211.496 325.938 211.621 326.073C211.756 326.198 211.829 326.36 211.829 326.553C211.829 326.735 211.756 326.886 211.621 327.011C211.496 327.136 211.339 327.198 211.162 327.198H206.183V330.657H211.725C211.902 330.657 212.058 330.73 212.183 330.865C212.319 330.99 212.391 331.152 212.391 331.344C212.391 331.527 212.319 331.678 212.183 331.803C212.058 331.928 211.902 331.99 211.725 331.99H205.454Z" fill="#272727"/>
<path d="M216.797 328.24C216.615 328.24 216.464 328.188 216.339 328.073C216.224 327.948 216.172 327.797 216.172 327.615C216.172 327.448 216.224 327.303 216.339 327.178C216.464 327.053 216.615 326.99 216.797 326.99H219.734C219.912 326.99 220.068 327.053 220.193 327.178C220.318 327.303 220.38 327.448 220.38 327.615C220.38 327.797 220.318 327.948 220.193 328.073C220.068 328.188 219.912 328.24 219.734 328.24H216.797Z" fill="#272727"/>
<path d="M225.28 332.073C225.083 332.073 224.916 332.001 224.78 331.865C224.64 331.73 224.572 331.563 224.572 331.365V321.24C224.572 321.047 224.64 320.881 224.78 320.74C224.916 320.589 225.083 320.511 225.28 320.511C225.489 320.511 225.655 320.584 225.78 320.719C225.916 320.86 225.989 321.032 225.989 321.24V331.365C225.989 331.563 225.916 331.73 225.78 331.865C225.64 332.001 225.473 332.073 225.28 332.073Z" fill="#272727"/>
<path d="M233.908 332.136C232.642 332.136 231.648 331.777 230.929 331.053C230.221 330.334 229.866 329.318 229.866 328.011C229.866 327.277 229.997 326.594 230.262 325.969C230.538 325.344 230.955 324.844 231.512 324.469C232.08 324.084 232.773 323.886 233.596 323.886C234.356 323.886 235.017 324.068 235.575 324.428C236.142 324.777 236.575 325.251 236.866 325.844C237.158 326.443 237.304 327.094 237.304 327.803C237.304 328.011 237.231 328.188 237.096 328.323C236.971 328.448 236.804 328.511 236.596 328.511H231.304C231.387 329.235 231.658 329.803 232.116 330.219C232.575 330.626 233.21 330.823 234.033 330.823C234.46 330.823 234.846 330.782 235.179 330.698C235.512 330.615 235.83 330.501 236.137 330.344C236.221 330.303 236.314 330.282 236.429 330.282C236.596 330.282 236.731 330.339 236.846 330.448C236.971 330.563 237.033 330.709 237.033 330.886C237.033 331.11 236.898 331.303 236.637 331.469C236.231 331.693 235.83 331.86 235.429 331.969C235.038 332.079 234.533 332.136 233.908 332.136ZM235.908 327.365C235.877 326.855 235.747 326.422 235.512 326.073C235.273 325.73 234.981 325.48 234.637 325.323C234.288 325.157 233.939 325.073 233.596 325.073C233.231 325.073 232.877 325.157 232.533 325.323C232.2 325.48 231.913 325.73 231.679 326.073C231.455 326.422 231.33 326.855 231.304 327.365H235.908Z" fill="#272727"/>
<path d="M243.107 332.136C242.648 332.136 242.216 332.042 241.815 331.865C241.425 331.688 241.112 331.417 240.878 331.053C240.654 330.693 240.544 330.277 240.544 329.803C240.544 329.042 240.846 328.428 241.461 327.969C242.07 327.511 242.966 327.282 244.148 327.282H246.023V327.157C246.023 326.464 245.857 325.969 245.523 325.678C245.19 325.376 244.659 325.219 243.94 325.219C243.55 325.219 243.195 325.256 242.878 325.323C242.57 325.381 242.232 325.469 241.857 325.594C241.773 325.61 241.711 325.615 241.669 325.615C241.503 325.615 241.362 325.563 241.253 325.448C241.138 325.339 241.086 325.198 241.086 325.032C241.086 324.756 241.216 324.553 241.482 324.428C242.367 324.068 243.273 323.886 244.19 323.886C244.909 323.886 245.513 324.032 246.003 324.323C246.503 324.605 246.867 324.98 247.107 325.448C247.341 325.907 247.461 326.407 247.461 326.948V331.365C247.461 331.563 247.383 331.73 247.232 331.865C247.091 332.001 246.925 332.073 246.732 332.073C246.534 332.073 246.367 332.001 246.232 331.865C246.091 331.73 246.023 331.563 246.023 331.365V330.969C245.258 331.751 244.284 332.136 243.107 332.136ZM243.628 330.907C244.086 330.907 244.523 330.797 244.94 330.573C245.367 330.339 245.732 330.053 246.023 329.719V328.407H244.336C242.763 328.407 241.982 328.823 241.982 329.657C241.982 330.032 242.107 330.339 242.357 330.573C242.607 330.797 243.029 330.907 243.628 330.907Z" fill="#272727"/>
<path d="M252.431 332.073C252.233 332.073 252.066 332.001 251.931 331.865C251.79 331.73 251.722 331.563 251.722 331.365V324.678C251.722 324.469 251.79 324.297 251.931 324.157C252.066 324.021 252.233 323.948 252.431 323.948C252.623 323.948 252.79 324.021 252.931 324.157C253.066 324.297 253.139 324.469 253.139 324.678V325.344C253.873 324.376 254.691 323.886 255.597 323.886H255.681C255.873 323.886 256.035 323.959 256.16 324.094C256.295 324.219 256.368 324.381 256.368 324.573C256.368 324.771 256.295 324.928 256.16 325.053C256.019 325.178 255.847 325.24 255.639 325.24H255.556C255.056 325.24 254.597 325.365 254.181 325.615C253.774 325.865 253.431 326.198 253.139 326.615V331.365C253.139 331.563 253.066 331.73 252.931 331.865C252.79 332.001 252.623 332.073 252.431 332.073Z" fill="#272727"/>
<path d="M260.295 332.073C260.097 332.073 259.93 332.001 259.795 331.865C259.654 331.73 259.587 331.563 259.587 331.365V324.678C259.587 324.469 259.654 324.297 259.795 324.157C259.93 324.021 260.097 323.948 260.295 323.948C260.488 323.948 260.654 324.021 260.795 324.157C260.93 324.297 261.003 324.469 261.003 324.678V325.303C261.404 324.876 261.837 324.532 262.295 324.282C262.753 324.021 263.295 323.886 263.92 323.886C264.488 323.886 264.982 324.021 265.399 324.282C265.826 324.547 266.154 324.917 266.378 325.386C266.597 325.86 266.712 326.376 266.712 326.928V331.365C266.712 331.563 266.634 331.73 266.482 331.865C266.342 332.001 266.175 332.073 265.982 332.073C265.785 332.073 265.618 332.001 265.482 331.865C265.357 331.73 265.295 331.563 265.295 331.365V327.094C265.295 325.818 264.717 325.178 263.566 325.178C263.05 325.178 262.587 325.318 262.17 325.594C261.764 325.86 261.378 326.219 261.003 326.678V331.365C261.003 331.563 260.93 331.73 260.795 331.865C260.654 332.001 260.488 332.073 260.295 332.073Z" fill="#272727"/>
<path d="M271.644 322.407C271.436 322.407 271.248 322.334 271.081 322.178C270.925 322.027 270.852 321.839 270.852 321.615V321.553C270.852 321.334 270.925 321.146 271.081 320.99C271.248 320.839 271.436 320.761 271.644 320.761H271.748C271.967 320.761 272.154 320.839 272.311 320.99C272.462 321.146 272.54 321.334 272.54 321.553V321.615C272.54 321.839 272.462 322.027 272.311 322.178C272.154 322.334 271.967 322.407 271.748 322.407H271.644ZM271.686 332.073C271.488 332.073 271.321 332.001 271.186 331.865C271.045 331.73 270.977 331.563 270.977 331.365V324.678C270.977 324.469 271.045 324.297 271.186 324.157C271.321 324.021 271.488 323.948 271.686 323.948C271.894 323.948 272.061 324.021 272.186 324.157C272.321 324.297 272.394 324.469 272.394 324.678V331.365C272.394 331.563 272.321 331.73 272.186 331.865C272.045 332.001 271.878 332.073 271.686 332.073Z" fill="#272727"/>
<path d="M277.459 332.073C277.261 332.073 277.094 332.001 276.959 331.865C276.818 331.73 276.751 331.563 276.751 331.365V324.678C276.751 324.469 276.818 324.297 276.959 324.157C277.094 324.021 277.261 323.948 277.459 323.948C277.652 323.948 277.818 324.021 277.959 324.157C278.094 324.297 278.167 324.469 278.167 324.678V325.303C278.568 324.876 279.001 324.532 279.459 324.282C279.917 324.021 280.459 323.886 281.084 323.886C281.652 323.886 282.146 324.021 282.563 324.282C282.99 324.547 283.318 324.917 283.542 325.386C283.761 325.86 283.876 326.376 283.876 326.928V331.365C283.876 331.563 283.797 331.73 283.646 331.865C283.506 332.001 283.339 332.073 283.146 332.073C282.949 332.073 282.782 332.001 282.646 331.865C282.521 331.73 282.459 331.563 282.459 331.365V327.094C282.459 325.818 281.881 325.178 280.73 325.178C280.214 325.178 279.751 325.318 279.334 325.594C278.928 325.86 278.542 326.219 278.167 326.678V331.365C278.167 331.563 278.094 331.73 277.959 331.865C277.818 332.001 277.652 332.073 277.459 332.073Z" fill="#272727"/>
<path d="M291.849 335.74C291.251 335.74 290.646 335.657 290.037 335.49C289.422 335.334 288.917 335.146 288.516 334.928C288.334 334.813 288.245 334.636 288.245 334.386C288.245 334.219 288.297 334.063 288.412 333.928C288.537 333.803 288.688 333.74 288.87 333.74C288.954 333.74 289.042 333.761 289.141 333.803C289.933 334.188 290.792 334.386 291.724 334.386C293.308 334.386 294.099 333.537 294.099 331.844V330.803C293.36 331.594 292.474 331.99 291.433 331.99C290.818 331.99 290.224 331.839 289.641 331.532C289.068 331.23 288.599 330.771 288.224 330.157C287.849 329.547 287.662 328.803 287.662 327.928C287.662 327.053 287.849 326.318 288.224 325.719C288.599 325.11 289.068 324.652 289.641 324.344C290.224 324.042 290.818 323.886 291.433 323.886C292.474 323.886 293.36 324.277 294.099 325.053V324.678C294.099 324.469 294.167 324.297 294.308 324.157C294.443 324.021 294.61 323.948 294.808 323.948C295.001 323.948 295.167 324.021 295.308 324.157C295.443 324.297 295.516 324.469 295.516 324.678V331.657C295.516 332.959 295.193 333.969 294.558 334.678C293.933 335.386 293.027 335.74 291.849 335.74ZM291.724 330.698C292.224 330.698 292.662 330.594 293.037 330.386C293.412 330.178 293.766 329.896 294.099 329.532V326.323C293.766 325.98 293.412 325.698 293.037 325.49C292.662 325.282 292.224 325.178 291.724 325.178C290.943 325.178 290.308 325.417 289.808 325.886C289.318 326.36 289.079 327.042 289.079 327.928C289.079 328.834 289.318 329.521 289.808 329.99C290.308 330.464 290.943 330.698 291.724 330.698Z" fill="#272727"/>
</svg>
