<svg width="146" height="148" viewBox="0 0 146 148" fill="none" xmlns="http://www.w3.org/2000/svg">
<path d="M70.7031 16.9167C74.849 16.9167 77.9531 17.9583 81.0625 19C84.1667 20.0469 87.276 22.1302 90.3854 25.2552C92.4531 27.3386 94.526 30.4688 95.5625 33.5938C96.599 36.724 97.6354 40.8906 97.6354 44.0208C97.6354 46.1042 95.5625 47.1458 94.526 47.1458C92.4531 47.1458 91.4167 46.1042 91.4167 44.0208C91.4167 40.8906 90.3854 38.8073 89.349 35.6823C88.3125 33.5938 87.276 31.5104 85.2031 29.4271C83.1354 27.3386 81.0625 25.2552 78.9896 24.2136C75.8854 23.1719 73.8125 23.1719 70.7031 23.1719C69.6667 23.1719 67.599 22.1302 67.599 20.0469C67.599 17.9583 69.6667 16.9167 70.7031 16.9167ZM110.063 56.5261C114.203 58.6146 117.313 60.6979 121.453 63.8229C128.703 72.1615 133.885 82.5886 133.885 94.0521V108.646H145.276V118.026H113.167V108.646H124.563V94.0521C124.563 84.6719 120.417 76.3333 115.24 71.1198C112.135 67.9948 109.026 65.9115 104.885 63.8229C100.74 70.0781 94.526 75.2917 87.276 78.4167L75.8854 89.8854L87.276 132.62L72.776 147.214L58.276 132.62L69.6667 89.8854L58.276 78.4167L72.776 62.7813L80.026 71.1198C93.4896 66.9531 103.849 55.4844 103.849 40.8906C103.849 23.1719 90.3854 9.6198 72.776 9.6198C56.2031 9.6198 41.7031 23.1719 41.7031 40.8906C41.7031 53.4011 48.9531 63.8229 60.349 69.0365L53.099 75.2917C47.9167 73.2083 43.776 69.0365 40.6667 63.8229C36.526 65.9115 33.4167 67.9948 30.3125 71.1198C25.1354 76.3333 20.9896 84.6719 20.9896 94.0521V108.646H33.4167V118.026H0.276047V108.646H12.7031V94.0521C12.7031 82.5886 16.849 72.1615 24.099 63.8229C28.2396 60.6979 31.349 58.6146 36.526 56.5261C34.4531 51.3177 33.4167 46.1042 33.4167 40.8906C33.4167 17.9583 51.026 0.239594 72.776 0.239594C94.526 0.239594 113.167 17.9583 113.167 40.8906C113.167 46.1042 112.135 51.3177 110.063 56.5261Z" fill="#03989E"/>
</svg>
